<svg width="120" height="116" viewBox="0 0 120 116" fill="none" xmlns="http://www.w3.org/2000/svg">
<path d="M50.9303 6.52964C54.5142 -1.18768 65.4856 -1.18769 69.0696 6.52963L79.1883 28.3181C80.6454 31.4557 83.6206 33.6173 87.0548 34.0335L110.904 36.9239C119.351 37.9477 122.741 48.3821 116.509 54.1755L98.9139 70.5319C96.3802 72.8873 95.2438 76.3848 95.9091 79.7796L100.53 103.354C102.167 111.704 93.2905 118.153 85.8549 114.017L64.8617 102.337C61.8387 100.655 58.1612 100.655 55.1382 102.337L34.145 114.016C26.7094 118.153 17.8333 111.705 19.47 103.354L24.0907 79.7796C24.7561 76.3848 23.6197 72.8873 21.086 70.5319L3.49075 54.1755C-2.74135 48.3821 0.648993 37.9477 9.09611 36.9239L32.9451 34.0335C36.3793 33.6173 39.3545 31.4557 40.8116 28.3181L50.9303 6.52964Z" fill="#B5B5C2"/>
</svg>
